# xmcd
#
# Track frame offsets:
#	150
#	9590
#	20050
#	31740
#	47510
#	60700
#	81030
#	90967
#	101860
#	113022
#
# Disc length: 1742 seconds
#
# Revision: 1
# Processed by: cddbd v1.5.1PL0 Copyright (c) Steve Scherf et al.
# Submitted via: audiograbber 1.83.01
#
DISCID=6d06cc0a
DTITLE=Memphis Slim - Come Back and Other Classics
DYEAR=1900
DGENRE=
TTITLE0=Sassy Mae 
TTITLE1=Gotta Find My Baby
TTITLE2=My Gal Keeps Me Crying
TTITLE3=Mother Earth
TTITLE4=Next Time You See Me
TTITLE5=Life Is Like That
TTITLE6=All by Myself
TTITLE7=Misery
TTITLE8=Kansas City
TTITLE9=Come Back
EXTD=
EXTT0=
EXTT1=
EXTT2=
EXTT3=
EXTT4=
EXTT5=
EXTT6=
EXTT7=
EXTT8=
EXTT9=
PLAYORDER=
